<?xml version="1.0" encoding="utf-8"?>
<!-- Generator: Adobe Illustrator 18.0.0, SVG Export Plug-In . SVG Version: 6.00 Build 0)  -->
<!DOCTYPE svg PUBLIC "-//W3C//DTD SVG 1.1//EN" "http://www.w3.org/Graphics/SVG/1.1/DTD/svg11.dtd">
<svg version="1.1" id="Layer_1" xmlns="http://www.w3.org/2000/svg" xmlns:xlink="http://www.w3.org/1999/xlink" x="0px" y="0px"
	 viewBox="0 0 274.4 35" enable-background="new 0 0 274.4 35" xml:space="preserve">
<g>
	<path fill="#41BB72" d="M142.8,1.9v23.5c0,0.9,0.7,1.6,1.6,1.6c0.9,0,1.6-0.7,1.6-1.6V1.9c0-0.9-0.7-1.6-1.6-1.6
		C143.6,0.3,142.8,1,142.8,1.9"/>
	<path fill="#41BB72" d="M43.4,23.5c-3.2,0-5.7-2.6-5.7-5.7c0-3.2,2.6-5.7,5.7-5.7c3.2,0,5.7,2.6,5.7,5.7
		C49.1,21,46.5,23.5,43.4,23.5 M43.4,8.8c-5,0-9,4-9,9c0,5,4,9,9,9c5,0,9-4,9-9S48.3,8.8,43.4,8.8"/>
	<path fill="#41BB72" d="M26,10.9v-0.5c0-0.9-0.7-1.6-1.6-1.6c-0.9,0-1.6,0.7-1.6,1.6v14.7c0,0.9,0.7,1.6,1.6,1.6
		c0.9,0,1.6-0.7,1.6-1.6v-7.4c0,0,0,0,0,0c0-3.2,2.6-5.7,5.7-5.7c0.9,0,1.6-0.7,1.6-1.6c0-0.9-0.7-1.6-1.6-1.6
		C29.6,8.8,27.6,9.6,26,10.9"/>
	<path fill="#41BB72" d="M98.4,10.9v-0.5c0-0.9-0.7-1.6-1.6-1.6c-0.9,0-1.6,0.7-1.6,1.6v14.7c0,0.9,0.7,1.6,1.6,1.6
		c0.9,0,1.6-0.7,1.6-1.6v-7.4c0-3.2,2.6-5.7,5.7-5.7c0.9,0,1.6-0.7,1.6-1.6c0-0.9-0.7-1.6-1.6-1.6C102,8.8,100,9.6,98.4,10.9"/>
	<path fill="#41BB72" d="M63.6,23.5c-3.2,0-5.7-2.6-5.7-5.7c0-3.2,2.6-5.7,5.7-5.7c3.2,0,5.7,2.6,5.7,5.7
		C69.4,21,66.8,23.5,63.6,23.5 M63.6,8.8c-2.2,0-4.2,0.8-5.7,2.1v-0.5c0-0.9-0.7-1.6-1.6-1.6c-0.9,0-1.6,0.7-1.6,1.6v23.2
		c0,0.9,0.7,1.6,1.6,1.6c0.9,0,1.6-0.7,1.6-1.6v-8.9c1.6,1.3,3.6,2.1,5.7,2.1c5,0,9-4,9-9C72.6,12.8,68.6,8.8,63.6,8.8"/>
	<path fill="#41BB72" d="M113,1.9v3.4c0,2-1.6,3.5-3.5,3.5c-0.4,0-0.8,0.2-1.1,0.5c-0.3,0.3-0.5,0.7-0.5,1.1c0,0.4,0.2,0.8,0.5,1.1
		c0.3,0.3,0.7,0.5,1.1,0.5h3.5V20c0,3.7,3,6.8,6.7,6.8c0.9,0,1.6-0.7,1.6-1.6c0-0.9-0.7-1.6-1.6-1.6c-1.9,0-3.5-1.6-3.5-3.6V12h3.1
		c0.9,0,1.6-0.7,1.6-1.6c0-0.9-0.7-1.6-1.6-1.6h-4.1c0.6-1,1-2.2,1-3.5V1.9c0-0.9-0.7-1.6-1.6-1.6S113,1,113,1.9"/>
	<path fill="#41BB72" d="M124.4,8.9c-0.8,0.4-1.2,1.3-0.8,2.1l6,13.3l-3.6,8.6c-0.3,0.8,0,1.8,0.9,2.1c0.8,0.3,1.8,0,2.1-0.9
		l9.7-23.2c0.3-0.8,0-1.8-0.9-2.1c-0.8-0.3-1.8,0-2.1,0.9l-4.4,10.5l-4.7-10.5c-0.3-0.6-0.9-1-1.5-1C124.8,8.8,124.6,8.9,124.4,8.9"
		/>
	<path fill="#41BB72" d="M78.9,16.2c-0.2,0-0.3,0-0.5,0.1c0.7-2.4,2.9-4.2,5.5-4.2c2.6,0,4.8,1.7,5.5,4.1H78.9z M83.9,8.8
		c-5,0-9,4-9,9c0,5,4,9,9,9c2,0,3.8-0.7,5.3-1.8l0,0c0.2-0.1,0.3-0.2,0.5-0.4c0.7-0.6,0.8-1.6,0.2-2.3c-0.6-0.7-1.6-0.8-2.3-0.2
		c-0.1,0.1-0.2,0.2-0.3,0.2l0,0c-1,0.7-2.1,1.1-3.4,1.1c-2.6,0-4.8-1.8-5.5-4.2c0.2,0,0.3,0.1,0.5,0.1h12.4c0.4,0,0.8-0.2,1.1-0.5
		c0.3-0.3,0.5-0.7,0.5-1.1C92.9,12.8,88.9,8.8,83.9,8.8"/>
	<path fill="#41BB72" d="M12.9,13.1H9.3H5.9V3.5h2h5c2.5,0,4.6,2.1,4.6,4.8C17.5,11,15.4,13.1,12.9,13.1 M12.9,0.3h-5H4.3
		c-0.4,0-0.8,0.2-1.1,0.5C2.8,1.1,2.7,1.5,2.7,1.9v23.2c0,0.9,0.7,1.6,1.6,1.6c0.9,0,1.6-0.7,1.6-1.6v-8.8h3.4h3.6
		c4.4,0,7.8-3.6,7.8-8C20.7,3.9,17.3,0.3,12.9,0.3"/>
	<path fill="#41BB72" d="M173.8,17c-0.4,1.3-1,2.4-1.8,3.4l-3.1-2.2c-0.6-0.4-1.4-0.4-2,0c-0.1,0-5.1,3.6-7.2,5.1
		c-3.5-1.6-5.9-5.2-5.9-9.3c0-5.7,4.6-10.3,10.3-10.3c5.7,0,10.3,4.6,10.3,10.3C174.3,15,174.1,16,173.8,17 M178.5,25l-3.7-2.6
		c1-1.3,1.8-2.8,2.3-4.4c0.4-1.3,0.6-2.6,0.6-4c0-7.6-6.2-13.8-13.8-13.8c-7.6,0-13.8,6.2-13.8,13.8c0,6,3.8,11,9.1,13
		c0.5,0.2,1.2,0.1,1.6-0.2l0,0l0,0l0,0l0,0l0,0c0,0,0,0,0.1,0c0.1,0,0.1-0.1,0.3-0.2c0.2-0.2,0.5-0.4,0.9-0.6
		c0.8-0.5,1.8-1.2,2.8-1.9c1.1-0.8,2.2-1.6,3-2.1l8.6,6.1c0.8,0.6,1.9,0.4,2.5-0.4C179.5,26.6,179.3,25.5,178.5,25"/>
	<path fill="#41BB72" d="M175.3,0.9c-0.1,0-0.1,0.1-0.1,0.1v0c0,0.1,0.1,0.1,0.1,0.1h0.2c0,0,0.1,0,0.1,0.1V3c0,0.1,0.1,0.1,0.1,0.1
		h0.1c0.1,0,0.1-0.1,0.1-0.1V1.3c0,0,0-0.1,0.1-0.1h0.2c0.1,0,0.1-0.1,0.1-0.1v0c0-0.1-0.1-0.1-0.1-0.1H175.3z"/>
	<path fill="#41BB72" d="M178.2,0.9c-0.1,0-0.1,0-0.2,0.1l-0.3,0.6c0,0.1-0.1,0.2-0.1,0.2c0,0,0-0.1-0.1-0.2l-0.3-0.6
		c0-0.1-0.1-0.1-0.2-0.1h0c-0.1,0-0.1,0.1-0.1,0.1v2c0,0.1,0.1,0.1,0.1,0.1h0.1c0.1,0,0.1-0.1,0.1-0.1V1.9c0-0.1,0-0.2,0-0.2
		c0,0,0,0,0,0c0,0,0,0.1,0.1,0.2l0.1,0.2c0,0.1,0.1,0.1,0.2,0.1h0.1c0.1,0,0.1-0.1,0.2-0.1l0.1-0.2c0.1-0.1,0.1-0.2,0.1-0.2
		c0,0,0,0,0,0c0,0,0,0.1,0,0.2V3c0,0.1,0.1,0.1,0.1,0.1h0.1c0.1,0,0.1-0.1,0.1-0.1v-2C178.3,1,178.3,0.9,178.2,0.9L178.2,0.9z"/>
</g>
<g>
	<path fill="#41BB72" d="M206.3,8.2c-1.5-1.9-3.5-3.1-6.2-3.1c-3.2,0-5.5,1.6-5.5,4.1c0,2.6,1.6,3.5,4.7,4.2l3.1,0.7
		c4.1,0.9,6.5,2.4,6.5,6.2c0,4-3.3,6.9-8.6,6.9c-5.1,0-8-2.7-9.2-5.3l1.9-1.3c0.9,2.4,3.3,4.7,7.3,4.7c4,0,6.3-2,6.3-4.9
		c0-2.5-1.6-3.6-5-4.4l-2.9-0.7c-3.5-0.8-6.4-1.9-6.4-6.1c0-3.6,3.2-6.3,7.8-6.3c3.8,0,6.4,1.7,7.8,3.5L206.3,8.2z"/>
	<path fill="#41BB72" d="M209.1,10.6h3.3V4.5l2-0.4v6.5h3.9v1.6h-3.9v11c0,0.8,0,1.4,0.3,1.8c0.2,0.3,0.6,0.4,1.3,0.4
		c1,0,1.9-0.3,2.3-0.5v1.8c-0.6,0.3-1.5,0.5-2.9,0.5c-1,0-1.8-0.2-2.3-0.8c-0.4-0.5-0.7-1.3-0.7-2.5V12.2h-3.3V10.6z"/>
	<path fill="#41BB72" d="M228.8,12.3c-0.4-0.1-0.8-0.1-1.1-0.1c-2.8,0-4.9,2.2-4.9,5.5v9.2h-2V10.6h2v3.2c0.6-1.9,2.5-3.6,4.9-3.6
		c0.4,0,0.7,0,1.1,0.1V12.3z"/>
	<path fill="#41BB72" d="M230.6,15.4c-0.1-3.2,2.6-5.1,6.2-5.1c3.4,0,5.8,1,5.8,5.1v8.1c0,1.3,0.1,2.1,1.3,2.1
		c0.5,0,1.1-0.2,1.2-0.3v1.6c-0.4,0.2-1,0.4-1.7,0.4c-1.6,0-2.7-0.9-2.7-2.6h0c-0.6,1.3-2.4,2.7-5.3,2.7c-3.2,0-5.2-1.9-5.2-4.9
		c0-1.4,0.4-2.5,1.2-3.2c1.1-1,2.7-1.4,4.7-1.8l3.7-0.7c0.6-0.1,0.8-0.2,0.8-0.9v-0.5c0-2.3-1.1-3.4-4-3.4c-2.7,0-4.2,1.4-4.2,3.9
		L230.6,15.4z M240.6,18.2c-0.3,0.1-0.8,0.2-2.1,0.5l-2,0.4c-1.1,0.2-2.2,0.4-2.9,0.9c-0.8,0.5-1.4,1.2-1.4,2.5
		c0,2.2,1.5,3.3,3.6,3.3c2.7,0,4.8-1.7,4.8-4.5V18.2z"/>
	<path fill="#41BB72" d="M244.6,10.6h3.3V4.5l2-0.4v6.5h3.9v1.6h-3.9v11c0,0.8,0,1.4,0.3,1.8c0.2,0.3,0.6,0.4,1.3,0.4
		c1,0,1.9-0.3,2.3-0.5v1.8c-0.6,0.3-1.5,0.5-2.9,0.5c-1,0-1.8-0.2-2.3-0.8c-0.4-0.5-0.7-1.3-0.7-2.5V12.2h-3.3V10.6z"/>
	<path fill="#41BB72" d="M256,15.4c-0.1-3.2,2.6-5.1,6.2-5.1c3.4,0,5.8,1,5.8,5.1v8.1c0,1.3,0.1,2.1,1.3,2.1c0.5,0,1.1-0.2,1.2-0.3
		v1.6c-0.4,0.2-1,0.4-1.7,0.4c-1.6,0-2.7-0.9-2.7-2.6h0c-0.6,1.3-2.4,2.7-5.3,2.7c-3.2,0-5.2-1.9-5.2-4.9c0-1.4,0.4-2.5,1.2-3.2
		c1.1-1,2.7-1.4,4.7-1.8l3.7-0.7c0.6-0.1,0.8-0.2,0.8-0.9v-0.5c0-2.3-1.1-3.4-4-3.4c-2.7,0-4.2,1.4-4.2,3.9L256,15.4z M266,18.2
		c-0.3,0.1-0.8,0.2-2.1,0.5l-2,0.4c-1.1,0.2-2.2,0.4-2.9,0.9c-0.8,0.5-1.4,1.2-1.4,2.5c0,2.2,1.5,3.3,3.6,3.3c2.7,0,4.8-1.7,4.8-4.5
		V18.2z"/>
</g>
</svg>
